<svg xmlns="http://www.w3.org/2000/svg">
  <symbol id="arrow-bottom-line" viewBox="0 0 24 24" fill="currentColor">
    <path 
      d="M12 13.172l4.95-4.95 1.415 1.414L12 16 5.637 9.636 7.05 8.222l4.95 4.95z" />
  </symbol>
  <symbol id="bar-chart-line" viewBox="0 0 16 16" fill="currentColor">
    <path
      d="M1.333 8.667h4V14h-4V8.667zm9.334-3.334h4V14h-4V5.333zM6 2h4v12H6V2zm-3.333 8v2.667H4V10H2.667zm4.667-6.667v9.334h1.333V3.333H7.334zM12 6.667v6h1.334v-6H12z" />
  </symbol>
  <symbol id="arrow-left-line" viewBox="0 0 24 24" fill="currentColor">
    <path 
      d="M10.828 12l4.95 4.95-1.414 1.415L8 12l6.364-6.364 1.414 1.414-4.95 4.95z" />
  </symbol>
  <symbol id="bar-chart-fill" viewBox="0 0 16 16" fill="currentColor">
    <path
      d="M2 8h2.667v6H2V8zm9.333-2.667H14V14h-2.667V5.333zm-4.666-4h2.666V14H6.667V1.333z" />
  </symbol>
  <symbol id="check-line" viewBox="0 0 20 20" fill="currentColor">
    <path
      d="M8.333 12.642l7.66-7.66 1.179 1.179-8.839 8.838L3.03 9.696l1.178-1.178 4.125 4.124z" />
  </symbol>
  <symbol id="add-line" viewBox="0 0 28 28" fill="currentColor">
    <path 
      d="M12.834 12.833v-7h2.333v7h7v2.334h-7v7h-2.333v-7h-7v-2.334h7z" />
  </symbol>
  <symbol id="bookmark-line" viewBox="0 0 20 20" fill="currentColor">
    <path
      d="M3.333 1.667h13.334c.46 0 .833.373.833.833v16.064a.417.417 0 0 1-.586.38L10 15.86l-6.914 3.085a.417.417 0 0 1-.586-.38V2.5c0-.46.373-.833.833-.833zm12.5 14.97V3.333H4.167v13.304L10 14.034l5.833 2.603zM10 11.25l-2.45 1.288.469-2.728-1.982-1.93 2.738-.399L10 5l1.225 2.481 2.738.398L11.98 9.81l.468 2.728L10 11.25z" />
  </symbol>
  <symbol id="camera-fill" viewBox="0 0 20 20" fill="currentColor">
    <path
      d="M7.5 2.5h5l1.666 1.667H17.5c.46 0 .833.373.833.833v11.667c0 .46-.373.833-.833.833h-15a.833.833 0 0 1-.833-.833V5c0-.46.373-.833.833-.833h3.333L7.5 2.5zM10 15.833a5 5 0 1 0 0-10 5 5 0 0 0 0 10zm0-1.666A3.333 3.333 0 1 1 10 7.5a3.333 3.333 0 0 1 0 6.667z" />
  </symbol>
  <symbol id="dice-line" viewBox="0 0 20 20" fill="currentColor">
    <path
      d="M9.165 1.317c.517-.3 1.154-.3 1.67 0l6.25 3.618c.515.298.832.848.832 1.443v7.244c0 .595-.317 1.145-.832 1.443l-6.25 3.618a1.667 1.667 0 0 1-1.67 0l-6.25-3.618a1.667 1.667 0 0 1-.832-1.443V6.378c0-.595.317-1.145.832-1.443l6.25-3.618zM3.75 6.377v.005l5.42 3.137c.514.298.831.847.831 1.442v6.28l6.25-3.619V6.378L10 2.759 3.75 6.378zm1.36 3.873c0-.46-.323-1.02-.721-1.25-.399-.23-.722-.044-.722.417 0 .46.323 1.02.722 1.25.398.23.721.043.721-.417zm2.164 5.415c.399.23.722.044.722-.416 0-.46-.323-1.02-.722-1.25-.398-.23-.721-.044-.721.416 0 .46.323 1.02.721 1.25zM4.39 14c.398.23.721.044.721-.417 0-.46-.323-1.02-.721-1.25-.399-.23-.722-.043-.722.417 0 .46.323 1.02.722 1.25zm2.885-1.666c.398.23.722.043.722-.417 0-.46-.324-1.02-.722-1.25-.399-.23-.722-.043-.722.417 0 .46.323 1.02.722 1.25zm5.141-5.666c.399-.23.399-.604 0-.834-.398-.23-1.045-.23-1.443 0-.399.23-.399.604 0 .834.398.23 1.045.23 1.443 0zm-4-.834c.399.23.399.604 0 .834-.398.23-1.045.23-1.443 0-.399-.23-.399-.604 0-.834.398-.23 1.045-.23 1.443 0zm4.915 6.958c.498-.287.902-.987.902-1.562 0-.575-.404-.809-.902-.521-.498.288-.902.987-.902 1.563 0 .575.403.808.902.52z" />
  </symbol>
  <symbol id="gamepad-fill" viewBox="0 0 20 20" fill="currentColor">
    <path
      d="M14.167 3.333a5 5 0 0 1 5 5v3.334a5 5 0 0 1-5 5H5.833a5 5 0 0 1-5-5V8.333a5 5 0 0 1 5-5h8.334zM8.334 7.5H6.667v1.667H5v1.666h1.666V12.5h1.668l-.001-1.667H10V9.167H8.334V7.5zM15 10.833h-1.666V12.5H15v-1.667zM13.334 7.5h-1.667v1.667h1.667V7.5z" />
  </symbol>
  <symbol id="bookmark-fill" viewBox="0 0 20 20" fill="currentColor">
    <path
      d="M3.333 1.667h13.334c.46 0 .833.373.833.833v16.064a.417.417 0 0 1-.586.38L10 15.86l-6.914 3.085a.417.417 0 0 1-.586-.38V2.5c0-.46.373-.833.833-.833zM10 11.25l2.45 1.288-.469-2.728 1.982-1.93-2.738-.399L10 5 8.775 7.481l-2.738.398L8.02 9.81l-.468 2.728L10 11.25z" />
  </symbol>
  <symbol id="group-fill" viewBox="0 0 20 20" fill="currentColor">
    <path
      d="M1.667 18.333a6.667 6.667 0 1 1 13.333 0H1.666zm6.666-7.5c-2.762 0-5-2.237-5-5a5 5 0 0 1 5-5c2.763 0 5 2.238 5 5 0 2.763-2.237 5-5 5zm6.136 1.861a6.254 6.254 0 0 1 4.684 5.64h-2.486a8.304 8.304 0 0 0-2.198-5.64zm-1.686-1.897A6.65 6.65 0 0 0 15 5.833c0-1.18-.307-2.29-.846-3.252a4.167 4.167 0 0 1-1.37 8.216z" />
  </symbol>
  <symbol id="gamepad-line" viewBox="0 0 20 20" fill="currentColor">
    <path
      d="M14.167 3.333a5 5 0 0 1 5 5v3.334a5 5 0 0 1-5 5H5.833a5 5 0 0 1-5-5V8.333a5 5 0 0 1 5-5h8.334zm0 1.667H5.833a3.333 3.333 0 0 0-3.329 3.167l-.004.166v3.334a3.333 3.333 0 0 0 3.167 3.329l.167.004h8.333a3.333 3.333 0 0 0 3.33-3.167l.003-.166V8.333a3.334 3.334 0 0 0-3.167-3.329L14.167 5zM8.334 7.5v1.667H10v1.666H8.333V12.5H6.668l-.001-1.667H5V9.167h1.667V7.5h1.667zM15 10.833V12.5h-1.666v-1.667H15zM13.334 7.5v1.667h-1.667V7.5h1.667z" />
  </symbol>
  <symbol id="group-line" viewBox="0 0 20 20" fill="currentColor">
    <path
      d="M1.667 18.333a6.667 6.667 0 1 1 13.333 0h-1.667a5 5 0 0 0-10 0H1.666zm6.666-7.5c-2.762 0-5-2.237-5-5a5 5 0 0 1 5-5c2.763 0 5 2.238 5 5 0 2.763-2.237 5-5 5zm0-1.666a3.332 3.332 0 1 0 0-6.667 3.332 3.332 0 1 0 0 6.667zm6.903 3.085a6.668 6.668 0 0 1 3.93 6.081H17.5a5 5 0 0 0-2.948-4.56l.684-1.52zm-.573-9.408a4.583 4.583 0 0 1 2.837 4.24 4.582 4.582 0 0 1-4.167 4.564V9.97a2.916 2.916 0 0 0 .868-5.506l.462-1.62z" />
  </symbol>
  <symbol id="information-fill" viewBox="0 0 16 16" fill="currentColor">
    <path
      d="M8 14.667A6.667 6.667 0 1 1 8 1.333a6.667 6.667 0 0 1 0 13.334zm-.667-7.334v4h1.334v-4H7.334zm0-2.666V6h1.334V4.667H7.334z" />
  </symbol>
  <symbol id="home-line" viewBox="0 0 20 20" fill="currentColor">
    <path
      d="M15.834 17.5H4.167a.833.833 0 0 1-.833-.833v-7.5h-2.5L9.44 1.343a.833.833 0 0 1 1.12 0l8.607 7.824h-2.5v7.5c0 .46-.373.833-.834.833zM5 15.833h10V7.631l-5-4.545L5 7.63v8.202z" />
  </symbol>
  <symbol id="home-fill" viewBox="0 0 20 20" fill="currentColor">
    <path
      d="M16.667 16.667c0 .46-.373.833-.834.833H4.168a.833.833 0 0 1-.833-.833v-7.5h-2.5L9.44 1.343a.833.833 0 0 1 1.12 0l8.607 7.824h-2.5v7.5z" />
  </symbol>
  <symbol id="men-fill" viewBox="0 0 20 20" fill="currentColor">
    <path
      d="M15.488 4.167h-3.821V2.5h6.666v6.667h-1.666V5.345l-2.948 2.947a6.25 6.25 0 1 1-1.178-1.179l2.947-2.946z" />
  </symbol>
  <symbol id="map-pin-fill" viewBox="0 0 20 20" fill="currentColor">
    <path
      d="M15.303 14.47L10 19.773 4.697 14.47a7.5 7.5 0 1 1 10.606 0zM10 12.5a3.333 3.333 0 1 0 0-6.667 3.333 3.333 0 0 0 0 6.667zm0-1.667A1.667 1.667 0 1 1 10 7.5a1.667 1.667 0 0 1 0 3.333z" />
  </symbol>
  <symbol id="map-pin-line" viewBox="0 0 20 20" fill="currentColor">
    <path
      d="M10 17.416l4.125-4.125a5.833 5.833 0 1 0-8.25 0L10 17.416zm0 2.357L4.697 14.47a7.5 7.5 0 1 1 10.606 0L10 19.773zm0-8.94A1.667 1.667 0 1 0 10 7.5a1.667 1.667 0 0 0 0 3.333zm0 1.667a3.333 3.333 0 1 1 0-6.667 3.333 3.333 0 0 1 0 6.667z" />
  </symbol>
  <symbol id="information-line" viewBox="0 0 16 16" fill="currentColor">
    <path
      d="M8 14.667A6.667 6.667 0 1 1 8 1.333a6.667 6.667 0 0 1 0 13.334zm0-1.334A5.333 5.333 0 1 0 8 2.667a5.333 5.333 0 0 0 0 10.666zm-.667-8.666h1.334V6H7.334V4.667zm0 2.666h1.334v4H7.334v-4z" />
  </symbol>
  <symbol id="more-line" viewBox="0 0 20 20" fill="currentColor">
    <path
      d="M10 2.5c-.688 0-1.25.563-1.25 1.25C8.75 4.438 9.313 5 10 5c.688 0 1.25-.563 1.25-1.25 0-.688-.563-1.25-1.25-1.25zM10 15c-.688 0-1.25.563-1.25 1.25 0 .688.563 1.25 1.25 1.25.688 0 1.25-.563 1.25-1.25 0-.688-.563-1.25-1.25-1.25zm0-6.25c-.688 0-1.25.563-1.25 1.25 0 .688.563 1.25 1.25 1.25.688 0 1.25-.563 1.25-1.25 0-.688-.563-1.25-1.25-1.25z" />
  </symbol>
  <symbol id="question-answer-fill" viewBox="0 0 20 20" fill="currentColor">
    <path
      d="M6.667 15h8.53l1.47 1.154V7.5h.833c.46 0 .834.373.834.833v11.25l-3.713-2.916h-7.12a.833.833 0 0 1-.834-.834V15zm-2.121-1.667L.833 16.25V3.333c0-.46.374-.833.834-.833h12.5c.46 0 .833.373.833.833v10H4.546z" />
  </symbol>
  <symbol id="question-answer-line" viewBox="0 0 20 20" fill="currentColor">
    <path
      d="M4.546 12.5L.833 15.417V2.5c0-.46.374-.833.834-.833h12.5c.46 0 .833.373.833.833v10H4.546zm-.577-1.667h9.365v-7.5H2.5v8.655l1.47-1.155zm2.698 3.334h8.53l1.47 1.154V6.667h.833c.46 0 .834.373.834.833v11.25l-3.713-2.917h-7.12A.833.833 0 0 1 6.666 15v-.833z" />
  </symbol>
  <symbol id="send-plane-line" viewBox="0 0 28 28" fill="currentColor">
    <path
      d="M4.083 1.57c.099 0 .195.025.281.072l21.54 11.847a.583.583 0 0 1 0 1.022L4.364 26.358a.583.583 0 0 1-.864-.511V2.153c0-.322.261-.583.583-.583zm1.75 3.543v7.72h5.834v2.333H5.833v7.72L21.991 14 5.833 5.113z" />
  </symbol>
  <symbol id="notification-line" viewBox="0 0 20 20" fill="currentColor">
    <path
      d="M15 8.333a5 5 0 1 0-10 0V15h10V8.333zm1.666 7.223L17 16a.417.417 0 0 1-.334.667H3.333A.417.417 0 0 1 3 16l.333-.444V8.332a6.667 6.667 0 0 1 13.334 0v7.223zM7.916 17.5h4.167a2.083 2.083 0 0 1-4.167 0z" />
  </symbol>
  <symbol id="notification-fill" viewBox="0 0 20 20" fill="currentColor">
    <path
      d="M16.25 14.722l.333.445a.417.417 0 0 1-.333.666H2.917a.417.417 0 0 1-.334-.666l.334-.445V7.5a6.667 6.667 0 1 1 13.333 0v7.222zM7.5 16.667h4.167a2.083 2.083 0 0 1-4.167 0z" />
  </symbol>
  <symbol id="settings-line" viewBox="0 0 20 20" fill="currentColor">
    <g clip-path="url(#a)">
      <path
        d="M7.238 3.333l2.173-2.172a.833.833 0 0 1 1.178 0l2.172 2.172h3.072c.46 0 .834.374.834.834v3.072l2.172 2.172a.833.833 0 0 1 0 1.178l-2.172 2.172v3.072c0 .46-.373.834-.834.834h-3.072l-2.172 2.172a.833.833 0 0 1-1.178 0l-2.173-2.172H4.167a.833.833 0 0 1-.834-.834v-3.072L1.161 10.59a.833.833 0 0 1 0-1.178L3.333 7.24V4.167c0-.46.373-.834.834-.834h3.071zM5 5v2.93L2.929 10l2.07 2.071v2.93h2.93l2.07 2.07 2.072-2.07H15v-2.93l2.071-2.07L15 7.928V5h-2.93L10 2.93 7.929 5h-2.93zm5 8.333a3.333 3.333 0 1 1 0-6.666 3.333 3.333 0 0 1 0 6.666zm0-1.666a1.667 1.667 0 1 0 0-3.334 1.667 1.667 0 0 0 0 3.334z" />
    </g>
    <defs>
      <clipPath id="a">
        <path fill="#fff" d="M0 0h20v20H0z" />
      </clipPath>
    </defs>
  </symbol>
  <symbol id="send-plane-fill" viewBox="0 0 28 28" fill="currentColor">
    <path
      d="M3.5 15.166h7v-2.333h-7V2.153a.583.583 0 0 1 .864-.511l21.54 11.847a.583.583 0 0 1 0 1.022L4.364 26.358a.583.583 0 0 1-.864-.511v-10.68z" />
  </symbol>
  <symbol id="share-line" viewBox="0 0 20 20" fill="currentColor">
    <path
      d="M10.933 14.186l-3.499-1.909a3.333 3.333 0 1 1 0-4.554l3.5-1.909a3.333 3.333 0 1 1 .799 1.463l-3.5 1.909a3.34 3.34 0 0 1 0 1.628l3.5 1.909a3.333 3.333 0 1 1-.799 1.463zM5 11.666a1.667 1.667 0 1 0 0-3.333 1.667 1.667 0 0 0 0 3.334zm9.166-5a1.667 1.667 0 1 0 0-3.333 1.667 1.667 0 0 0 0 3.334zm0 10a1.667 1.667 0 1 0 0-3.333 1.667 1.667 0 0 0 0 3.334z" />
  </symbol>
  <symbol id="settings-fill" viewBox="0 0 20 20" fill="currentColor">
    <path
      d="M6.633 3.05l1.993-1.993a.765.765 0 0 1 1.081 0L11.7 3.05h2.819c.422 0 .764.342.764.765v2.818l1.993 1.993a.765.765 0 0 1 0 1.081L15.283 11.7v2.819a.765.765 0 0 1-.764.764H11.7l-1.993 1.993a.765.765 0 0 1-1.08 0l-1.994-1.993H3.815a.765.765 0 0 1-.765-.764V11.7L1.057 9.707a.765.765 0 0 1 0-1.081L3.05 6.633V3.815c0-.423.343-.765.765-.765h2.818zm2.534 8.41a2.294 2.294 0 1 0 0-4.587 2.294 2.294 0 0 0 0 4.587z" />
  </symbol>
  <symbol id="share-fill" viewBox="0 0 20 20" fill="currentColor">
    <path
      d="M11.313 14.393L7.055 12.07a2.917 2.917 0 1 1 0-4.14l4.258-2.323a2.917 2.917 0 1 1 .799 1.463L7.854 9.393a2.929 2.929 0 0 1 0 1.214l4.258 2.323a2.917 2.917 0 1 1-.799 1.463z" />
  </symbol>
  <symbol id="team-line" viewBox="0 0 20 20" fill="currentColor">
    <path
      d="M10 9.167a4.167 4.167 0 0 1 4.166 4.166v5H12.5v-5a2.5 2.5 0 0 0-2.353-2.495L10 10.833a2.5 2.5 0 0 0-2.496 2.353l-.004.147v5H5.833v-5A4.167 4.167 0 0 1 10 9.167zm-5.417 2.5c.233 0 .459.027.675.078-.14.417-.226.857-.25 1.313L5 13.333v.072a1.244 1.244 0 0 0-.296-.066l-.12-.006a1.25 1.25 0 0 0-1.245 1.13l-.006.12v3.75H1.666v-3.75a2.917 2.917 0 0 1 2.917-2.916zm10.834 0a2.917 2.917 0 0 1 2.916 2.916v3.75h-1.666v-3.75a1.25 1.25 0 0 0-1.13-1.244l-.12-.006a1.25 1.25 0 0 0-.417.071v-.07c0-.555-.09-1.089-.257-1.588.215-.052.441-.08.673-.08zm-10.834-5a2.083 2.083 0 1 1 0 4.166 2.083 2.083 0 0 1 0-4.166zm10.833 0a2.083 2.083 0 1 1 0 4.166 2.083 2.083 0 0 1 0-4.166zM4.583 8.333a.417.417 0 1 0 0 .834.417.417 0 0 0 0-.834zm10.833 0a.417.417 0 1 0 0 .834.417.417 0 0 0 0-.834zM10 1.667a3.333 3.333 0 1 1 0 6.666 3.333 3.333 0 0 1 0-6.666zm0 1.666a1.667 1.667 0 1 0 0 3.334 1.667 1.667 0 0 0 0-3.334z" />
  </symbol>
  <symbol id="team-fill" viewBox="0 0 20 20" fill="currentColor">
    <path
      d="M10 8.333a3.333 3.333 0 1 0 0-6.666 3.333 3.333 0 0 0 0 6.666zm-5.417 2.5a2.083 2.083 0 1 0 0-4.166 2.083 2.083 0 0 0 0 4.166zM17.5 8.75a2.083 2.083 0 1 1-4.167 0 2.083 2.083 0 0 1 4.167 0zm-7.5.417a4.167 4.167 0 0 1 4.166 4.166v5H5.833v-5A4.167 4.167 0 0 1 10 9.167zm-5.833 4.166c0-.577.083-1.135.24-1.662l-.142.013a2.917 2.917 0 0 0-2.598 2.9v3.75h2.5v-5zm14.166 5v-3.75a2.917 2.917 0 0 0-2.74-2.912c.156.527.24 1.085.24 1.662v5h2.5z" />
  </symbol>
  <symbol id="thumb-up-fill" viewBox="0 0 20 20" fill="currentColor">
    <path
      d="M1.667 7.5h2.5v10h-2.5a.833.833 0 0 1-.834-.833V8.333c0-.46.374-.833.834-.833zm4.41-1.077l5.334-5.334a.417.417 0 0 1 .545-.039l.71.533c.404.303.586.82.462 1.308l-.961 3.776H17.5c.92 0 1.667.746 1.667 1.666v1.754c0 .218-.043.433-.126.635l-2.578 6.262a.833.833 0 0 1-.77.516H6.666a.833.833 0 0 1-.833-.833V7.012c0-.221.087-.433.244-.59z" />
  </symbol>
  <symbol id="thumb-up-line" viewBox="0 0 20 20" fill="currentColor">
    <path
      d="M12.167 6.667H17.5c.92 0 1.667.746 1.667 1.667v1.753c0 .218-.043.434-.126.635l-2.578 6.262a.833.833 0 0 1-.77.516H1.666a.833.833 0 0 1-.834-.833V8.334c0-.46.374-.834.834-.834h2.901a.831.831 0 0 0 .681-.353L9.794.71a.417.417 0 0 1 .526-.132l1.512.756A2.083 2.083 0 0 1 12.92 3.71l-.752 2.957zM5.834 8.823v7.01h9.3l2.366-5.746V8.334h-5.333a1.667 1.667 0 0 1-1.615-2.078l.752-2.957a.416.416 0 0 0-.217-.475l-.551-.276-3.925 5.56a2.499 2.499 0 0 1-.777.715zm-1.667.344H2.5v6.667h1.667V9.167z" />
  </symbol>
  <symbol id="thumb-down-fill" viewBox="0 0 20 20" fill="currentColor">
    <path
      d="M18.334 12.5h-2.5v-10h2.5c.46 0 .833.373.833.833v8.334c0 .46-.373.833-.834.833zm-4.411 1.077l-5.334 5.334a.417.417 0 0 1-.545.039l-.71-.533a1.25 1.25 0 0 1-.461-1.308l.96-3.776H2.5c-.92 0-1.667-.746-1.667-1.666V9.913c0-.218.043-.433.126-.635l2.579-6.262a.833.833 0 0 1 .77-.516h9.026c.46 0 .833.373.833.833v9.655a.833.833 0 0 1-.244.59z" />
  </symbol>
  <symbol id="thumb-down-line" viewBox="0 0 20 20" fill="currentColor">
    <path
      d="M7.834 13.333H2.5c-.92 0-1.667-.746-1.667-1.666V9.913c0-.218.043-.433.126-.635l2.579-6.262a.833.833 0 0 1 .77-.516h14.026c.46 0 .833.373.833.833v8.334c0 .46-.373.833-.834.833h-2.901a.833.833 0 0 0-.68.353l-4.545 6.438a.417.417 0 0 1-.527.132l-1.512-.756a2.083 2.083 0 0 1-1.087-2.377l.753-2.957zm6.333-2.156v-7.01h-9.3L2.5 9.913v1.754h5.334a1.667 1.667 0 0 1 1.615 2.078L8.696 16.7a.417.417 0 0 0 .218.476l.55.275 3.926-5.56c.208-.295.474-.537.777-.715zm1.667-.344H17.5V4.167h-1.666v6.666z" />
  </symbol>
  <symbol id="user-fill" viewBox="0 0 20 20" fill="currentColor">
    <path
      d="M3.333 18.333a6.667 6.667 0 1 1 13.334 0H3.333zm6.667-7.5c-2.762 0-5-2.237-5-5a5 5 0 0 1 5-5c2.763 0 5 2.238 5 5 0 2.763-2.237 5-5 5z" />
  </symbol>
  <symbol id="time-fill" viewBox="0 0 20 20" fill="currentColor">
    <path
      d="M10 18.333a8.333 8.333 0 1 1 0-16.666 8.333 8.333 0 0 1 0 16.666zM10.833 10V5.833H9.166v5.834h5V10h-3.333z" />
  </symbol>
  <symbol id="user-forbid-fill" viewBox="0 0 24 24" fill="currentColor">
    <path
      d="M12 13a6 6 0 1 0 0-12 6 6 0 0 0 0 12zm3 5a3 3 0 0 1 4.293-2.708l-4 4.001A2.988 2.988 0 0 1 15 18zm1.707 2.708l4-4.001a3 3 0 0 1-4.001 4.001zM18 13a5 5 0 1 0 0 10 5 5 0 0 0 0-10zm-6 1c.084 0 .168.001.252.004A6.968 6.968 0 0 0 11 18c0 1.487.464 2.866 1.255 4H4a8 8 0 0 1 8-8z" />
  </symbol>
  <symbol id="time-line" viewBox="0 0 20 20" fill="currentColor">
    <path
      d="M10 18.333a8.333 8.333 0 1 1 0-16.666 8.333 8.333 0 0 1 0 16.666zm0-1.666a6.667 6.667 0 1 0 0-13.334 6.667 6.667 0 0 0 0 13.334zM10.833 10h3.333v1.667h-5V5.833h1.667V10z" />
  </symbol>
  <symbol id="user-line" viewBox="0 0 20 20" fill="currentColor">
    <path
      d="M3.333 18.333a6.667 6.667 0 1 1 13.334 0H15a5 5 0 0 0-10 0H3.333zm6.667-7.5c-2.762 0-5-2.237-5-5a5 5 0 0 1 5-5c2.763 0 5 2.238 5 5 0 2.763-2.237 5-5 5zm0-1.666A3.332 3.332 0 1 0 10 2.5a3.332 3.332 0 1 0 0 6.667z" />
  </symbol>
  <symbol id="vip-crown-fill" viewBox="0 0 20 20" fill="currentColor">
    <path
      d="M2.338 4.333l3.5 2.333 3.488-4.884a.833.833 0 0 1 1.356 0l3.489 4.884 3.5-2.333a.833.833 0 0 1 1.29.791l-1.37 11.64a.833.833 0 0 1-.828.736H3.245a.833.833 0 0 1-.827-.736l-1.37-11.64a.833.833 0 0 1 1.29-.79zm7.666 8.167a1.667 1.667 0 1 0 0-3.334 1.667 1.667 0 0 0 0 3.334z" />
  </symbol>
  <symbol id="chat-fill" viewBox="0 0 24 24" fill="currentColor">
    <path 
      d="M8 18H18.2372L20 19.3851V9H21C21.5523 9 22 9.44772 22 10V23.5L17.5455 20H9C8.44772 20 8 19.5523 8 19V18ZM5.45455 16L1 19.5V4C1 3.44772 1.44772 3 2 3H17C17.5523 3 18 3.44772 18 4V16H5.45455Z" />
  </symbol>
  <symbol id="chat-line" viewBox="0 0 24 24" fill="currentColor">
    <path 
      d="M5.45455 15L1 18.5V3C1 2.44772 1.44772 2 2 2H17C17.5523 2 18 2.44772 18 3V15H5.45455ZM4.76282 13H16V4H3V14.3851L4.76282 13ZM8 17H18.2372L20 18.3851V8H21C21.5523 8 22 8.44772 22 9V22.5L17.5455 19H9C8.44772 19 8 18.5523 8 18V17Z" />
  </symbol>
  <symbol id="bell-fill" viewBox="0 0 24 24" fill="currentColor">
    <path 
      d="M20 18.6667L20.4 19.2C20.5657 19.4209 20.5209 19.7343 20.3 19.9C20.2135 19.9649 20.1082 20 20 20H4C3.72386 20 3.5 19.7761 3.5 19.5C3.5 19.3918 3.53509 19.2865 3.6 19.2L4 18.6667V10C4 5.58172 7.58172 2 12 2C16.4183 2 20 5.58172 20 10V18.6667ZM9.5 21H14.5C14.5 22.3807 13.3807 23.5 12 23.5C10.6193 23.5 9.5 22.3807 9.5 21Z" />
  </symbol>
  <symbol id="bell-line" viewBox="0 0 24 24" fill="currentColor">
    <path 
      d="M18 10C18 6.68629 15.3137 4 12 4C8.68629 4 6 6.68629 6 10V18H18V10ZM20 18.6667L20.4 19.2C20.5657 19.4209 20.5209 19.7343 20.3 19.9C20.2135 19.9649 20.1082 20 20 20H4C3.72386 20 3.5 19.7761 3.5 19.5C3.5 19.3918 3.53509 19.2865 3.6 19.2L4 18.6667V10C4 5.58172 7.58172 2 12 2C16.4183 2 20 5.58172 20 10V18.6667ZM9.5 21H14.5C14.5 22.3807 13.3807 23.5 12 23.5C10.6193 23.5 9.5 22.3807 9.5 21Z" />
  </symbol>
  <symbol id="search-fill" viewBox="0 0 24 24" fill="currentColor">
    <path 
      d="M18.031 16.6168L22.3137 20.8995L20.8995 22.3137L16.6168 18.031C15.0769 19.263 13.124 20 11 20C6.032 20 2 15.968 2 11C2 6.032 6.032 2 11 2C15.968 2 20 6.032 20 11C20 13.124 19.263 15.0769 18.031 16.6168Z" />
  </symbol>
  <symbol id="search-line" viewBox="0 0 24 24" fill="currentColor">
    <path 
      d="M18.031 16.6168L22.3137 20.8995L20.8995 22.3137L16.6168 18.031C15.0769 19.263 13.124 20 11 20C6.032 20 2 15.968 2 11C2 6.032 6.032 2 11 2C15.968 2 20 6.032 20 11C20 13.124 19.263 15.0769 18.031 16.6168ZM16.0247 15.8748C17.2475 14.6146 18 12.8956 18 11C18 7.1325 14.8675 4 11 4C7.1325 4 4 7.1325 4 11C4 14.8675 7.1325 18 11 18C12.8956 18 14.6146 17.2475 15.8748 16.0247L16.0247 15.8748Z" />
  </symbol>
  <symbol id="close-line" viewBox="0 0 24 24" fill="currentColor">
    <path 
      d="M11.9997 10.5865L16.9495 5.63672L18.3637 7.05093L13.4139 12.0007L18.3637 16.9504L16.9495 18.3646L11.9997 13.4149L7.04996 18.3646L5.63574 16.9504L10.5855 12.0007L5.63574 7.05093L7.04996 5.63672L11.9997 10.5865Z" />
  </symbol>
  <symbol id="arrow-right-line" viewBox="0 0 24 24" fill="currentColor">
    <path 
      d="M13.1716 11.9993L8.2218 7.0496L9.636 5.6354L16 11.9993L9.636 18.3633L8.2218 16.9491L13.1716 11.9993Z"/>
  </symbol>
  <symbol id="logout-line" viewBox="0 0 20 2O" fill="currentColor">
    <path 
      d="M4.16659 18.3334C3.70635 18.3334 3.33325 17.9603 3.33325 17.5001V2.50008C3.33325 2.03985 3.70635 1.66675 4.16659 1.66675H15.8333C16.2935 1.66675 16.6666 2.03985 16.6666 2.50008V5.00008H14.9999V3.33341H4.99992V16.6667H14.9999V15.0001H16.6666V17.5001C16.6666 17.9603 16.2935 18.3334 15.8333 18.3334H4.16659ZM14.9999 13.3334V10.8334H9.16658V9.16675H14.9999V6.66675L19.1666 10.0001L14.9999 13.3334Z"/>
  </symbol>
  <symbol id="refresh-line" viewBox="0 0 24 24" fill="currentColor">
    <path 
      d="M5.46257 4.43262C7.21556 2.91688 9.5007 2 12 2C17.5228 2 22 6.47715 22 12C22 14.1361 21.3302 16.1158 20.1892 17.7406L17 12H20C20 7.58172 16.4183 4 12 4C9.84982 4 7.89777 4.84827 6.46023 6.22842L5.46257 4.43262ZM18.5374 19.5674C16.7844 21.0831 14.4993 22 12 22C6.47715 22 2 17.5228 2 12C2 9.86386 2.66979 7.88416 3.8108 6.25944L7 12H4C4 16.4183 7.58172 20 12 20C14.1502 20 16.1022 19.1517 17.5398 17.7716L18.5374 19.5674Z" />
  </symbol>
  <symbol id="error-warning-fill" viewBox="0 0 24 24" fill="currentColor">
    <path 
      d="M12 22C6.47715 22 2 17.5228 2 12C2 6.47715 6.47715 2 12 2C17.5228 2 22 6.47715 22 12C22 17.5228 17.5228 22 12 22ZM11 15V17H13V15H11ZM11 7V13H13V7H11Z" />
  </symbol>
  <symbol id="loader-line" viewBox="0 0 24 24" fill="currentColor">
    <path 
      d="M12 3C16.9706 3 21 7.02944 21 12H19C19 8.13401 15.866 5 12 5V3Z" />
  </symbol>
  <symbol id="delete-bin-line" viewBox="0 0 20 20" fill="currentColor">
    <path 
      d="M14.167 4.99984H18.3337V6.6665H16.667V17.4998C16.667 17.9601 16.2939 18.3332 15.8337 18.3332H4.16699C3.70676 18.3332 3.33366 17.9601 3.33366 17.4998V6.6665H1.66699V4.99984H5.83366V2.49984C5.83366 2.0396 6.20676 1.6665 6.66699 1.6665H13.3337C13.7939 1.6665 14.167 2.0396 14.167 2.49984V4.99984ZM15.0003 6.6665H5.00033V16.6665H15.0003V6.6665ZM7.50033 9.1665H9.16699V14.1665H7.50033V9.1665ZM10.8337 9.1665H12.5003V14.1665H10.8337V9.1665ZM7.50033 3.33317V4.99984H12.5003V3.33317H7.50033Z"/>
  </symbol>
  <symbol id="subway-fill" viewBox="0 0 24 24" fill="currentColor">
    <path d="M17.2 20L19 21.5V22H5V21.5L6.8 20H5C3.89543 20 3 19.1046 3 18V7C3 4.79086 4.79086 3 7 3H17C19.2091 3 21 4.79086 21 7V18C21 19.1046 20.1046 20 19 20H17.2ZM11 12V5H7C5.89543 5 5 5.89543 5 7V12H11ZM13 12H19V7C19 5.89543 18.1046 5 17 5H13V12ZM7.5 18C8.32843 18 9 17.3284 9 16.5C9 15.6716 8.32843 15 7.5 15C6.67157 15 6 15.6716 6 16.5C6 17.3284 6.67157 18 7.5 18ZM16.5 18C17.3284 18 18 17.3284 18 16.5C18 15.6716 17.3284 15 16.5 15C15.6716 15 15 15.6716 15 16.5C15 17.3284 15.6716 18 16.5 18Z" />
  </symbol>
  <symbol id="subway-line" viewBox="0 0 24 24" fill="currentColor">
    <path d="M17.2 20L19 21.5V22H5V21.5L6.8 20H5C3.89543 20 3 19.1046 3 18V7C3 4.79086 4.79086 3 7 3H17C19.2091 3 21 4.79086 21 7V18C21 19.1046 20.1046 20 19 20H17.2ZM13 5V11H19V7C19 5.89543 18.1046 5 17 5H13ZM11 5H7C5.89543 5 5 5.89543 5 7V11H11V5ZM19 13H5V18H19V13ZM7.5 17C6.67157 17 6 16.3284 6 15.5C6 14.6716 6.67157 14 7.5 14C8.32843 14 9 14.6716 9 15.5C9 16.3284 8.32843 17 7.5 17ZM16.5 17C15.6716 17 15 16.3284 15 15.5C15 14.6716 15.6716 14 16.5 14C17.3284 14 18 14.6716 18 15.5C18 16.3284 17.3284 17 16.5 17Z" />
  </symbol>
  <symbol id="calendar-line" viewBox = "0 0 24 24" fill="currentColor">
    <path 
      d="M9 1V3H15V1H17V3H21C21.5523 3 22 3.44772 22 4V20C22 20.5523 21.5523 21 21 21H3C2.44772 21 2 20.5523 2 20V4C2 3.44772 2.44772 3 3 3H7V1H9ZM20 11H4V19H20V11ZM7 5H4V9H20V5H17V7H15V5H9V7H7V5Z" />
  </symbol>
  <symbol id="inbox-2-fill" viewBox = "0 0 24 24" fill="currentColor">
    <path 
      d="M5 3C4.5313 3 4.12549 3.32553 4.02381 3.78307L2.02381 12.7831C2.00799 12.8543 2 12.927 2 13V20C2 20.5523 2.44772 21 3 21H21C21.5523 21 22 20.5523 22 20V13C22 12.927 21.992 12.8543 21.9762 12.7831L19.9762 3.78307C19.8745 3.32553 19.4687 3 19 3H5ZM19.7534 12H15C15 13.6569 13.6569 15 12 15C10.3431 15 9 13.6569 9 12H4.24662L5.80217 5H18.1978L19.7534 12Z" />
  </symbol>
</svg>
